<svg xmlns="http://www.w3.org/2000/svg" width="376" height="505">
    <path fill="none" d="M-1-1h378v507H-1z"/>
    <path d="M374.99 1.333l-255.71.02C36.5-1.667-.5 53.333.88 115.833l.15 196.47C21 242.333 57.25 216.333 104 203.313l-.02-31.2c-1.98-70.28 40.27-65.78 80.75-65.78l63.49.03c109.53 5.72 128.53-67.28 126.78-105.03M.88 358.083c16.62-27.13 36.62-55 113.62-55.75l105.88-1.06c71.12-1.19 94.23-62.35 94.65-92.95l-159.76-.54C44.73 207.063 6 291.003.88 358.093m102.14 40.07c3.71 65.44-56.38 105.72-102.01 105.17L1 393.593c-2.75-62.51 76.19-82.4 102.02-81.82l-.01 86.39" fill="#fff" fill-opacity=".99"/>
</svg>
