<svg xmlns="http://www.w3.org/2000/svg" width="376" height="505"><path fill="none" d="M-1-1h378v507H-1z"/><g fill="#fff" fill-opacity=".98963732"><path d="M374.99 1.333334l-255.71.02c-82.78-3.02-119.78 51.98-118.4 114.48l.15 196.47c19.97-69.97 56.22-95.97 102.97-108.99l-.02-31.2c-1.98-70.28 40.27-65.78 80.75-65.78l63.49.03c109.53 5.72 128.53-67.28 126.78-105.03m-374.12 356.75c16.62-27.13 36.62-55 113.62-55.75l105.88-1.06c71.12-1.19 94.23-62.35 94.65-92.95l-159.76-.54c-110.54-.72-149.27 83.22-154.39 150.31m102.14 40.07c3.71 65.44-56.38 105.72-102.01 105.17l-.01-109.74c-2.75-62.51 76.19-82.4 102.02-81.82l-.01 86.39"/></g></svg>