<svg xmlns="http://www.w3.org/2000/svg" width="415.26" height="415.26" viewBox="0 0 1800 1800">
  <path d="M1245 850.985v.145a74.934 74.934 0 00-6.34 91.543l148.24 148.247c82.01 82.01 82.01 214.97 0 296.98s-214.97 82.01-296.98 0L899 1196.98 708.081 1387.9c-82.01 82.01-214.975 82.01-296.985 0s-82.01-214.97 0-296.98l145.737-145.738A74.942 74.942 0 00557 855h.014L411.1 709.081c-82.01-82.01-82.01-214.975 0-296.985s214.975-82.01 296.985 0L899 603.015 1089.92 412.1c82.01-82.01 214.97-82.01 296.98 0s82.01 214.975 0 296.985zm-222.26-74.729l-337.994-338-.018.018c-.466-.477-.923-.959-1.4-1.432a175 175 0 00-247.483 247.49c.473.473.955.93 1.432 1.4l-.018.018L575 823.487v.7a106.241 106.241 0 010 151.992v.329L436.552 1114.96a175 175 0 00247.487 247.49l338.7-338.71a174.981 174.981 0 00.001-247.484zm-656.635-61.679c.189.189.373.383.56.574l.007-.007L502.2 850.668a70.127 70.127 0 01.059 99.174L366.611 1085.49a70.177 70.177 0 01-119.733-50.1h-.169l-.161-267.309a70.057 70.057 0 01119.557-53.504z" fill="#fff" fill-rule="evenodd"/>
</svg>
